<?xml version="1.0" encoding="iso-8859-1"?>
<!-- Generator: Adobe Illustrator 16.0.0, SVG Export Plug-In . SVG Version: 6.00 Build 0)  -->
<!DOCTYPE svg PUBLIC "-//W3C//DTD SVG 1.1//EN" "http://www.w3.org/Graphics/SVG/1.1/DTD/svg11.dtd">
<svg xmlns="http://www.w3.org/2000/svg" xmlns:xlink="http://www.w3.org/1999/xlink" version="1.1" id="Capa_1" x="0px" y="0px" width="512px" height="512px" viewBox="0 0 42.792 42.792" style="enable-background:new 0 0 42.792 42.792;" xml:space="preserve">
<g>
	<path d="M42.792,13.986L30.243,2.336L26.325,5.19l-4.417-4.101L0,17.039L7.229,32.56l2.125-1.547l5.042,10.689L41.59,21.906   l-4.175-4.007L42.792,13.986z M30.012,6.215l8.066,7.488L16.72,29.25l-1.293-2.661l19.027-13.851l-5.892-5.47L30.012,6.215z    M3.76,18.009L21.674,4.969l8.068,7.489L8.409,27.988L3.76,18.009z M36.928,21.589L15.562,37.142l-3.738-7.929l1.141-0.83   l2.625,5.402L34.953,19.69L36.928,21.589z M12.92,13.811l4.332,5.951l-2.426,1.765l-4.332-5.949L12.92,13.811z M16.258,11.379   l4.333,5.951l-2.424,1.766l-4.333-5.951L16.258,11.379z M23.93,14.901l-2.426,1.766l-4.333-5.95l2.425-1.767L23.93,14.901z" fill="#323D51"/>
</g>
<g>
</g>
<g>
</g>
<g>
</g>
<g>
</g>
<g>
</g>
<g>
</g>
<g>
</g>
<g>
</g>
<g>
</g>
<g>
</g>
<g>
</g>
<g>
</g>
<g>
</g>
<g>
</g>
<g>
</g>
</svg>
