<svg xmlns="http://www.w3.org/2000/svg" width="15" height="15" viewBox="0 0 36.4 36.4">
<path d="M30.2 3.9h-1.1V2.8c0-1.5-1.2-2.7-2.7-2.7 -1.5 0-2.7 1.2-2.7 2.8v1.2h-2.7V2.8c0-1.5-1.2-2.7-2.7-2.7 -1.5 0-2.7 1.2-2.7 2.8v1.2h-2.7V2.8c0-1.5-1.2-2.7-2.7-2.7 -1.5 0-2.7 1.2-2.7 2.8v1.2H6.2c-2.3 0-4.2 1.9-4.2 4.3v2h2.5 27.5 2.5v-2C34.5 5.9 32.6 3.9 30.2 3.9zM11.5 7.6c0 0.7-0.5 1.3-1.2 1.3s-1.2-0.6-1.2-1.2V2.8c0-0.7 0.5-1.2 1.2-1.2s1.2 0.6 1.2 1.3V7.6zM19.5 7.6c0 0.7-0.5 1.3-1.2 1.3s-1.2-0.6-1.2-1.2V2.8c0-0.7 0.5-1.2 1.2-1.2s1.2 0.6 1.2 1.3V7.6zM27.6 7.6c0 0.7-0.5 1.3-1.2 1.3 -0.6 0-1.2-0.6-1.2-1.2V2.8c0-0.7 0.5-1.2 1.2-1.2 0.6 0 1.2 0.6 1.2 1.3V7.6z" class="icon"/>
<path d="M2 32.2c0 2.3 1.9 4.3 4.3 4.3h24c2.3 0 4.3-1.9 4.3-4.2V12.1h-32.5V32.2zM25.1 15.3h4.6v4.1h-4.6V15.3zM25.1 20.8h4.6v4.1h-4.6V20.8zM25.1 26.2h4.6v4.1h-4.6V26.2zM19 15.3h4.6v4.1h-4.6V15.3zM19 20.8h4.6v4.1h-4.6V20.8zM19 26.2h4.6v4.1h-4.6V26.2zM12.9 15.3h4.6v4.1h-4.6V15.3zM12.9 20.8h4.6v4.1h-4.6V20.8zM12.9 26.2h4.6v4.1h-4.6V26.2zM6.7 20.8h4.6v4.1H6.7V20.8zM6.7 26.2h4.6v4.1H6.7V26.2z" class="icon"/>
</svg>
