<svg xmlns="http://www.w3.org/2000/svg" viewBox="0 0 489.6 489.6" width="512" height="512"><style>.a{fill:#FFF;}</style><path d="M434.7 52.2h-96.6V18c0-9.9-8.1-18-18-18h-150.4c-9.9 0-18 8.1-18 18v94.7c0 9.9 8.1 18 18 18h111.2c9.9 0 18-8.1 18-18 0-9.9-8.1-18-18-18h-93.2V36h114.5v34.2c0 9.9 8.1 18 18 18h96.6v365.4H73V88.2h27.5c9.9 0 18-8.1 18-18 0-9.9-8.1-18-18-18h-45.5c-9.9 0-18 8.1-18 18v401.4c0 9.9 8.1 18 18 18h379.7c9.9 0 18-8.1 18-18V70.2C452.7 60.3 444.6 52.2 434.7 52.2z" class="a"/><path d="M327.8 217c-7-7.1-18.4-7.1-25.5-0.1l-83.9 83.2 -30.7-30.9c-7-7.1-18.4-7.1-25.5-0.1 -7.1 7-7.1 18.4-0.1 25.5l43.4 43.7c3.5 3.5 8.1 5.3 12.8 5.3 4.6 0 9.2-1.7 12.7-5.2l96.7-95.9C334.8 235.5 334.8 224.1 327.8 217z" class="a"/></svg>
