<svg xmlns="http://www.w3.org/2000/svg" viewBox="0 0 492.4 492.4" width="15" height="15">
<path d="M367.8 103h83c5.5 0 10-4.5 10-10V10c0-5.5-4.5-10-10-10h-83c-5.5 0-10 4.5-10 10v25H244.5c-9.1 0-16.5 7.4-16.5 16.5v178.2h-58.4v-39.2c0-7.4-6-13.4-13.4-13.4H44.9c-7.4 0-13.4 6-13.4 13.4v111.3c0 7.4 6 13.4 13.4 13.4H156.3c7.4 0 13.4-6 13.4-13.4v-39.2h58.4v178.2c0 9.1 7.4 16.5 16.5 16.5h113.3v25c0 5.5 4.5 10 10 10h83c5.5 0 10-4.5 10-10v-83c0-5.5-4.5-10-10-10h-83c-5.5 0-10 4.5-10 10v25h-96.8V262.7h96.8v25c0 5.5 4.5 10 10 10h83c5.5 0 10-4.5 10-10v-83c0-5.5-4.5-10-10-10h-83c-5.5 0-10 4.5-10 10v25h-96.8V68h96.8v25C357.8 98.5 362.3 103 367.8 103z" class="icon2"/>
</svg>
