<svg xmlns="http://www.w3.org/2000/svg" viewBox="0 0 60.1 60.1" width="512" height="512"><path d="M60 10.9c0 0 0 0 0 0 0-0.1-0.1-0.2-0.1-0.3 0 0 0 0 0 0 0 0 0 0 0 0 -0.1-0.1-0.1-0.2-0.2-0.3 0 0 0 0-0.1 0 -0.1 0-0.2-0.1-0.2-0.1 -0.1 0-0.1 0-0.2 0 0 0-0.1 0-0.1 0H59.1c0 0-0.1 0-0.1 0 0 0 0 0 0 0 0 0 0 0 0 0 0 0-0.1 0-0.1 0L0.8 22.1c-0.4 0.1-0.7 0.4-0.8 0.8s0.2 0.8 0.5 1l16.6 8.8 2.9 16.2c0 0 0 0 0 0 0 0.1 0 0.2 0 0.2 0 0 0 0.1 0 0.1 0 0.1 0.1 0.2 0.1 0.3 0 0 0 0 0 0.1 0 0 0 0 0 0 0 0 0 0 0 0.1 0 0.1 0.1 0.1 0.2 0.2 0 0 0 0 0 0 0 0 0 0 0 0 0.1 0 0.1 0.1 0.2 0.1 0 0 0.1 0 0.1 0 0.1 0 0.2 0 0.3 0 0 0 0 0 0 0h0c0 0 0 0 0 0 0 0 0 0 0 0 0 0 0 0 0.1 0 0.3 0 0.5-0.1 0.7-0.3l11.1-7.4 11.6 7.5c0.2 0.1 0.4 0.2 0.5 0.2 0.1 0 0.2 0 0.3-0.1 0.3-0.1 0.5-0.3 0.6-0.6l13.9-37.8c0.1-0.2 0.1-0.3 0.1-0.5C60.1 11 60.1 10.9 60 10.9zM48.5 17.6L24.5 35.2c0 0-0.1 0.1-0.1 0.1 0 0 0 0 0 0 0 0 0 0-0.1 0.1 0 0 0 0 0 0.1 0 0.1-0.1 0.1-0.1 0.2 0 0 0 0 0 0 0 0 0 0 0 0l-2.7 8.9 -2.2-12.1L48.5 17.6zM22.9 46.6l2.7-9 4.2 2.8 1.2 0.8 -4.1 2.7L22.9 46.6z" fill="#FFF"/></svg>
