<svg xmlns="http://www.w3.org/2000/svg" width="15" height="15" viewBox="0 0 42.8 42.8">
<path d="M42.8 14L30.2 2.3 26.3 5.2l-4.4-4.1L0 17 7.2 32.6l2.1-1.5 5 10.7L41.6 21.9l-4.2-4L42.8 14zM30 6.2l8.1 7.5L16.7 29.3l-1.3-2.7 19-13.9 -5.9-5.5L30 6.2zM3.8 18L21.7 5l8.1 7.5L8.4 28 3.8 18zM36.9 21.6L15.6 37.1l-3.7-7.9 1.1-0.8 2.6 5.4L35 19.7 36.9 21.6zM12.9 13.8l4.3 6 -2.4 1.8 -4.3-5.9L12.9 13.8zM16.3 11.4l4.3 6 -2.4 1.8 -4.3-6L16.3 11.4zM23.9 14.9l-2.4 1.8 -4.3-5.9 2.4-1.8L23.9 14.9z" class="icon2"/>
</svg>
