<svg xmlns="http://www.w3.org/2000/svg" viewBox="0 0 25.7 25.7" width="512" height="512"><style>.a{fill:#FFF;}</style><path d="M6.4 8.5C6.2 7.9 6 7.3 5.9 6.7 5.1 6.3 4.5 5.4 4.5 4.3c0-1.6 1.3-2.8 2.8-2.8s2.8 1.3 2.8 2.8c0 0.2 0 0.4-0.1 0.6 0.3 0.6 0.5 1.3 0.7 2 0.5-0.7 0.9-1.6 0.9-2.6C11.6 1.9 9.7 0 7.3 0S3 1.9 3 4.3C3 6.4 4.4 8.1 6.4 8.5z" class="a"/><path d="M3.4 18.7c1.1-1.1 2.3-0.7 3.9-0.5 1.4 0.2 2.7-0.2 2.6-0.9 -0.1-1.2-0.3-1.7-0.8-3.3 -0.4-1.2-1.1-3.5-1.7-5.6 -0.8-2.8-1.1-4.2 0-4.5 1.2-0.4 1.9 1.4 2.5 3.7 0.7 2.7 1.1 3.9 1.3 3.8 0.4-0.1-0.1-1.3 0.8-1.5 1.2-0.4 1.4 0.6 1.8 0.5 0.3-0.1 0.2-1.1 1.2-1.3 1-0.3 1.5 0.9 1.9 0.8 0.4-0.1 0.4-0.5 1-0.7 0.6-0.2 2.9 0.8 4.1 5.2 1.6 5.5-0.2 6.6 0.3 8.4l-7.2 2.7c-0.6-1.4-2.4-1.5-4-2.4 -1.6-0.9-2.7-2.7-6.9-2.6C2.6 20.7 2.7 19.4 3.4 18.7z" class="a"/></svg>
