<svg xmlns="http://www.w3.org/2000/svg" viewBox="0 0 268.5 268.5" width="15" height="15">
<path d="M63.1 250.3c0 0 4 18.2 24.6 18.2h93.1c20.6 0 24.6-18.2 24.6-18.2l18.4-178.7H44.7L63.1 250.3zM170 98.4c0-4.9 4-8.9 8.9-8.9 4.9 0 9 4 9 8.9l-8.9 134.2c0 4.9-4 8.9-8.9 8.9 -4.9 0-8.9-4-8.9-8.9L170 98.4zM125.3 98.4c0-4.9 4-8.9 8.9-8.9 4.9 0 8.9 4 8.9 8.9v134.2c0 4.9-4 8.9-8.9 8.9 -4.9 0-8.9-4-8.9-8.9V98.4zM89.5 89.5c4.9 0 8.9 4 8.9 8.9l9 134.2c0 4.9-4 8.9-8.9 8.9 -4.9 0-8.9-4-8.9-8.9L80.5 98.4C80.5 93.5 84.6 89.5 89.5 89.5zM218.4 35.8h-39.4V17.9C179 4.3 174.6 0 161.1 0L107.4 0C95 0 89.5 6 89.5 17.9v17.9H50.1c-7.9 0-14.3 6-14.3 13.4 0 7.4 6.4 13.4 14.3 13.4H218.4c7.9 0 14.3-6 14.3-13.4C232.7 41.8 226.3 35.8 218.4 35.8zM161.1 35.8h-53.7l0-17.9h53.7V35.8z" class="icon"/>
</svg>
