<svg xmlns="http://www.w3.org/2000/svg" width="512" height="512" viewBox="0 0 31.4 31.4"><style>.a{fill:#FFF;}</style><path d="M28.8 7l-0.5 0.1L25.8 7.3l-0.7 1.1 -0.5-0.2L22.6 6.5l-0.3-0.9L21.9 4.6l-1.3-1.1 -1.5-0.3 0 0.7 1.4 1.4 0.7 0.8L20.5 6.5l-0.6-0.2L18.9 5.9l0-0.8 -1.3-0.5 -0.4 1.8 -1.3 0.3 0.1 1 1.7 0.3 0.3-1.6 1.4 0.2 0.6 0.4h1l0.7 1.4 1.9 1.9 -0.1 0.7 -1.5-0.2 -2.6 1.3 -1.9 2.2 -0.2 1h-0.7l-1.3-0.6 -1.2 0.6 0.3 1.3 0.5-0.6 0.9 0 -0.1 1.2 0.8 0.2 0.8 0.9 1.3-0.4 1.4 0.2 1.7 0.4 0.8 0.1 1.4 1.6 2.7 1.6 -1.8 3.4 -1.9 0.9 -0.7 1.9 -2.7 1.8 -0.3 1c6.9-1.7 12-7.9 12-15.3C31.4 12.5 30.4 9.5 28.8 7z" class="a"/><path d="M17.5 23.9l-1.1-2.1 1.1-2.2 -1-0.3 -1.2-1.2 -2.6-0.6 -0.9-1.8v1.1h-0.4l-2.3-3.1v-2.5L7.4 8.5 4.8 9H3L2.2 8.4 3.3 7.5 2.2 7.8c-1.4 2.3-2.2 5-2.2 7.9 0 8.7 7 15.7 15.7 15.7 0.7 0 1.3-0.1 2-0.1l-0.2-1.9c0 0 0.7-2.8 0.7-2.9C18.2 26.4 17.5 23.9 17.5 23.9z" class="a"/><path d="M5.8 5.1l2.8-0.4 1.3-0.7 1.4 0.4 2.3-0.1 0.8-1.2 1.2 0.2 2.8-0.3L19.2 2.1l1.1-0.7 1.5 0.2 0.6-0.1C20.4 0.6 18.1 0 15.7 0 10.8 0 6.5 2.2 3.6 5.7h0L5.8 5.1zM16.4 1.6l1.6-0.9 1 0.6 -1.5 1.1 -1.4 0.1 -0.6-0.4L16.4 1.6zM11.6 1.7l0.7 0.3 0.9-0.3 0.5 0.9 -2.1 0.6 -1-0.6C10.6 2.5 11.6 1.9 11.6 1.7z" class="a"/></svg>
 
